<svg xmlns="http://www.w3.org/2000/svg" xmlns:xlink="http://www.w3.org/1999/xlink" version="1.1" id="Layer_1" x="0px" y="0px" width="21px" height="525px" viewBox="0 0 21 525" enable-background="new 0 0 21 525" xml:space="preserve">
<path fill="#7E8282" d="M2,192h3v3H2V192z"/>
<path fill="#7E8282" d="M2,197h3v3H2V197z"/>
<path fill="#7E8282" d="M2,202h3v3H2V202z"/>
<path fill="#7E8282" d="M7,192h11v3H7V192z"/>
<path fill="#7E8282" d="M7,197h11v3H7V197z"/>
<path fill="#7E8282" d="M7,202h11v3H7V202z"/>
<path fill="#7E8282" d="M18.688,167.625l-3.897-3.441c-0.39-0.345-0.781-0.191-0.781,0.34v1.674l-6.152,0.651  c-0.639,0.038-0.718,0.692-0.366,0.845l6.511,2.47v1.83c0,0.527,0.396,0.687,0.781,0.34l3.861-3.441  c0.381-0.351,0.424-0.92,0.043-1.26V167.625z"/>
<path fill="#7E8282" d="M13.539,173.316L7,170.856v-1.832c0-0.529-0.335-0.683-0.717-0.338l-1.875,1.682l-2.22,1.996  c-0.239,0.22-0.242,0.567-0.002,0.783l2.213,1.994l1.885,1.684c0.382,0.35,0.716,0.2,0.716-0.33v-1.676l6.229-0.647  c0.639-0.04,0.662-0.689,0.312-0.84L13.539,173.316L13.539,173.316z"/>
<path fill="#7E8282" d="M20,140.887l-7.055-0.279l-2.445-6.6l-2.446,6.596L1,140.884l5.542,4.355L4.628,152l5.872-3.904l5.871,3.899  l-1.913-6.769l5.542-4.35V140.887z M10.5,146.107l-3.048,2.027l0.993-3.514l-2.877-2.263l3.662-0.145l1.27-3.424l1.27,3.424  l3.662,0.145l-2.877,2.263l0.993,3.514l-3.048-2.03V146.107z"/>
<path fill="#7E8282" d="M5,116h2v2H5V116z"/>
<path fill="#7E8282" d="M8,116h2v2H8V116z"/>
<path fill="#7E8282" d="M11,116h2v2h-2V116z"/>
<polygon fill="#7E8282" points="18,109 17,109 4,109 4,111 17,111 17,122 19,122 19,109 "/>
<polygon fill="#7E8282" points="17,80.001 4,80.001 2,80.001 2,82.001 2,88 4,88 4,82 17,82 17,95.001 11,95.001 11,97 17,97 19,97   19,95 19,82.001 19,80.001 "/>
<path fill="#7E8282" d="M2,90.001V97h7v-6.999H2z M7,95.001H4V92h3V95.001z"/>
<polygon fill="#7E8282" points="15,84.119 10,84.119 11.832,85.951 9.197,88.586 10.612,90 13.246,87.364 15,89.119 "/>
<polygon fill="#7E8282" points="17,56 17,60 4,60 4,56 2,56 2,60 2,62 4,62 17,62 19,62 19,60 19,56 "/>
<polygon fill="#7E8282" points="2,63 2,64 2,65 2,71 4,71 4,65 17,65 17,71 19,71 19,65 19,64 19,63 "/>
<path fill="#7E8282" d="M6,67h9v1H6V67z"/>
<path fill="#7E8282" d="M6,69h7v1H6V69z"/>
<path fill="#7E8282" d="M6,57h9v1H6V57z"/>
<polygon fill="#7E8282" points="3,29 2,29 2,31 3,31 3,42 2,42 2,44 3,44 5,44 5,42 5,31 5,29 "/>
<path fill="#7E8282" d="M6,29v15h13V29H6L6,29z M17,42H8V31h9V42z"/>
<path fill="#7E8282" d="M9,32h7v1H9V32z"/>
<path fill="#7E8282" d="M9,34h5v1H9V34z"/>
<path fill="#7E8282" d="M9,37h7v1H9V37z"/>
<path fill="#7E8282" d="M9,39h5v1H9V39z"/>
<path fill="#7E8282" d="M18,8H9V4l-7,7l7,7v-4h9V8z"/>
<path fill="#7E8282" d="M2,112v11h4v4l4-4h6v-11H2z M14,121H4v-7h10V121z"/>
<path fill="#7E8282" d="M9.012,230.996H12V228H9.012v3V230.996z M5.801,221.637h2.587c0-0.512,0.145-1.006,0.433-1.479  c0.289-0.479,0.779-0.715,1.47-0.715c0.702,0,1.188,0.191,1.451,0.58c0.266,0.385,0.396,0.812,0.396,1.281  c0,0.406-0.119,0.781-0.355,1.121c-0.131,0.194-0.305,0.379-0.518,0.547l-0.66,0.524c-0.643,0.521-1.041,0.979-1.196,1.38  c-0.154,0.396-0.25,1.075-0.285,2.125h2.434c0.006-0.496,0.045-0.816,0.108-1.058c0.112-0.371,0.351-0.69,0.688-0.977l0.639-0.51  c0.646-0.521,1.076-0.947,1.304-1.279c0.39-0.551,0.58-1.228,0.58-2.027c0-1.312-0.442-2.299-1.339-2.967  c-0.896-0.666-2.016-1.001-3.362-1.001c-1.026,0-1.892,0.23-2.596,0.7c-1.116,0.75-1.711,2-1.781,3.761L5.801,221.637L5.801,221.637  z"/>
<path fill="#7E8282" d="M8,250h7v1H8V250z"/>
<path fill="#7E8282" d="M8,252h4v1H8V252z"/>
<path fill="#7E8282" d="M8,254.012h6V255H8V254.012z"/>
<path fill="#7E8282" d="M18.939,260.939c-0.019-0.059-0.031-0.104-0.047-0.16c-0.035-0.131-0.078-0.253-0.139-0.369  c-0.021-0.055-0.05-0.104-0.074-0.151c-0.062-0.117-0.138-0.229-0.217-0.328c-0.023-0.039-0.057-0.078-0.087-0.112  c-0.106-0.134-0.229-0.257-0.374-0.354c-0.001-0.002-0.002-0.002-0.003-0.006V249c0-1.656-1.347-3-3-3H3c-0.36,0-1,1.469-1,2  c0,0.938-0.188,2,1,2v11c0,1.658,1.343,3,3,3h10.689c0.955,0,1.773-0.629,2.127-1.525c0.115-0.301,0.185-0.629,0.185-0.975  c0.004-0.199-0.022-0.381-0.062-0.57V260.939z M6.005,262.011c-0.553,0-1-0.447-1-1v-12c0-0.554,0.447-1,1-1h9c0.554,0,1,0.446,1,1  v10h-9c1.274,0,1.308,1.119,1.308,2.5c0,0.172-0.016,0.34-0.046,0.5H6.005z"/>
<g id="Layer_3">
	<g id="Livello_42_2_">
		<polygon fill="#7E8282" points="4,280.06 4,295 4.039,295 9.496,291.771 14.952,295 14.99,295 14.99,280.06   "/>
	</g>
</g>
<polygon fill="#7E8282" points="7.008,277.062 7.008,279 16.003,279 16.003,290.84 17.961,292 18,292 18,277.062 "/>
<g>
	<g>
		<path fill="#7E8282" d="M18.777,354v-14c0-1.104-0.896-2-2-2h-13c-0.975,0-2,1.166-2,2s0.343,1.879,1,2v15c0,1.104,0.896,2,2,2h13    C19.877,359,21.02,355.32,18.777,354z M16.777,354h-10c0.879,0.814,1.273,1.912,1.09,3h-2.09c-0.553,0-1-0.446-1-1v-15    c0-0.553,0.447-1,1-1h10c0.553,0,1,0.447,1,1V354z M7,347h8v-2H7V347z M7,344h8v-2H7V344z M7,350h4v-2H7V350z"/>
	</g>
</g>
<g>
	<g>
		<path fill="#7E8282" d="M8,374H4v10h4V374z M7,372H5v1h2V372z M5,388h2v-2h1v-1H4v1h1V388z M10,382v2h8v-2H10z M10,388h8v-2h-8    V388z M4,392h14v-2H4V392z"/>
	</g>
</g>
<path fill="#7E8282" d="M4,311h13v9H7l-3,3v-3l0,0V311z"/>
<g>
	<g>
		<path fill="#7E8282" d="M8,408H4v10h4V408z M7,406H5v1h2V406z M8,419H4v1h1v2h2v-2h1V419z M10,416v2h8v-2H10z M10,422h8v-2h-8V422    z M4,426h2v-1H4V426z M8,426h2v-1H8V426z M12,426h2v-1h-2V426z M16,426h2v-1h-2V426z"/>
	</g>
</g>
<g>
	<g>
		<path fill="#7E8282" d="M10.5,438c-3.037,0-5.5,2.463-5.5,5.5c0,2.517,1.693,4.634,4,5.287V454c0,0.553,0.672,1,1.5,1    s1.5-0.447,1.5-1v-5.213c2.308-0.653,4-2.771,4-5.287C16,440.463,13.537,438,10.5,438z M13,444h-2v2h-1v-2H8v-1h2v-2h1v2h2V444z"/>
	</g>
</g>
<path fill-rule="evenodd" clip-rule="evenodd" fill="#7E8282" d="M8,479c0-3.299,2.664-5.975,5.958-5.998  C13.974,472.835,14,472.671,14,472.5c0-3.037-2.463-5.5-5.5-5.5S3,469.463,3,472.5c0,2.517,1.693,4.634,4,5.287V483  c0,0.553,0.672,1,1.5,1c0.634,0,1.174-0.263,1.393-0.634C8.73,482.271,8,480.723,8,479z M6,473v-1h2v-2h1v2h2v1H9v2H8v-2H6z"/>
<path fill-rule="evenodd" clip-rule="evenodd" fill="#6F90A5" d="M14,474c-2.762,0-5,2.238-5,5s2.238,5,5,5s5-2.238,5-5  S16.762,474,14,474z M14.5,480.943l-0.707,0.707l-0.707-0.707l-1.414-1.414l0.707-0.707l1.414,1.414l2.828-2.828L17,478.322  l-2.513,2.608L14.5,480.943z"/>
</svg>
