<?xml version="1.0" encoding="utf-8"?>
<!DOCTYPE svg PUBLIC "-//W3C//DTD SVG 1.1//EN" "http://www.w3.org/Graphics/SVG/1.1/DTD/svg11.dtd">
<svg version="1.1" id="Layer_1" xmlns="http://www.w3.org/2000/svg" xmlns:xlink="http://www.w3.org/1999/xlink" x="0px" y="0px"
	 width="48px" height="8px" viewBox="0 0 48 8" enable-background="new 0 0 48 8" xml:space="preserve">
<g>
	<path fill-rule="evenodd" clip-rule="evenodd" fill="#B3B3B3" d="M18.932,3.474c0.922,0,1.866,0.67,1.866,1.492
		c0,0.312-0.106,0.647-0.401,0.853c-0.143,0.114-0.143,0.281,0.023,0.464c0.196,0.213,0.483,0.381,0.771,0.381
		C21.539,6.665,22,6.338,22,5.705c0-0.35-0.227-1.104-1.133-1.789c-0.952-0.731-1.768-0.974-2.705-1.035
		C16.182,1.289,14.581,1,13.417,1c-1.269,0-2.402,0.411-2.976,0.64C9.927,1.837,7.932,2.675,6.52,3.299
		C5.039,3.916,3.762,4.29,2.886,4.29c-0.703,0-1.715-0.252-1.715-1.119c0-0.32,0.129-0.541,0.303-0.67
		c0.098-0.084,0.174-0.206,0.174-0.312c0-0.319-0.288-0.807-0.786-0.807C0.302,1.381,0,1.944,0,2.371c0,1.157,1.253,1.942,2.1,2.292
		C3.656,6.33,5.228,7,6.754,7c1.118,0,2.191-0.305,3.611-0.823c1.073-0.396,4.442-1.782,5.795-2.215
		c1.247-0.388,1.957-0.488,2.758-0.488H18.932z M14.588,1.632c1.035,0,2.017,0.526,2.5,1.302c-0.589,0.007-1.481,0.137-2.954,0.677
		C12.662,4.114,9.942,5.287,8.99,5.614c-1.058,0.35-2.071,0.64-3.075,0.64c-1.125,0-2.13-0.373-2.659-1.332
		c1.05,0.137,2.04-0.031,3.498-0.602c1.118-0.434,4.201-1.858,5.243-2.216c0.877-0.297,1.722-0.472,2.576-0.472H14.588z"/>
</g>
<g>
	<path fill-rule="evenodd" clip-rule="evenodd" fill="#B3B3B3" d="M29.083,3.474c0.801,0,1.511,0.099,2.758,0.488
		c1.352,0.434,4.722,1.819,5.795,2.215C39.055,6.695,40.128,7,41.246,7c1.526,0,3.097-0.67,4.654-2.338
		c0.846-0.35,2.1-1.135,2.1-2.292c0-0.426-0.302-0.99-0.861-0.99c-0.498,0-0.786,0.487-0.786,0.807c0,0.107,0.076,0.229,0.174,0.312
		c0.174,0.129,0.303,0.35,0.303,0.67c0,0.868-1.012,1.119-1.715,1.119c-0.876,0-2.153-0.373-3.634-0.99
		c-1.413-0.624-3.407-1.462-3.921-1.66C36.985,1.411,35.852,1,34.583,1c-1.163,0-2.765,0.289-4.744,1.881
		c-0.937,0.061-1.753,0.305-2.705,1.035C26.227,4.601,26,5.355,26,5.705c0,0.632,0.461,0.959,0.808,0.959
		c0.288,0,0.574-0.168,0.771-0.381c0.166-0.183,0.166-0.35,0.023-0.464c-0.295-0.206-0.401-0.541-0.401-0.853
		c0-0.822,0.944-1.492,1.866-1.492H29.083z M33.427,1.632c0.854,0,1.7,0.175,2.576,0.472c1.043,0.358,4.125,1.782,5.243,2.216
		c1.458,0.571,2.448,0.739,3.498,0.602c-0.529,0.959-1.534,1.332-2.659,1.332c-1.005,0-2.017-0.289-3.075-0.64
		c-0.952-0.327-3.671-1.5-5.145-2.003c-1.473-0.54-2.364-0.67-2.954-0.677c0.483-0.777,1.465-1.302,2.5-1.302H33.427z"/>
</g>
</svg>
